<svg xmlns="http://www.w3.org/2000/svg" viewBox="0 0 310 313"><defs><style>.cls-1{fill:gold;}.cls-1,.cls-2,.cls-3{stroke:#000;stroke-miterlimit:10;}.cls-1,.cls-2{stroke-width:8px;}.cls-2{fill:none;}.cls-3{font-size:100px;stroke-width:0.25px;font-family:Arial-BoldMT, Arial;font-weight:700;}</style></defs><g id="Ebene_2" data-name="Ebene 2"><g id="Ebene_1-2" data-name="Ebene 1"><rect class="cls-1" x="43.5" y="41.5" width="222.5" height="230" rx="18.6"/><line class="cls-2" x1="77" y1="313" x2="77" y2="272"/><line class="cls-2" x1="113" y1="313" x2="113" y2="272"/><line class="cls-2" x1="113" y1="313" x2="113" y2="272"/><line class="cls-2" x1="151" y1="313" x2="151" y2="272"/><line class="cls-2" x1="187" y1="313" x2="187" y2="272"/><line class="cls-2" x1="187" y1="313" x2="187" y2="272"/><line class="cls-2" x1="223" y1="313" x2="223" y2="272"/><line class="cls-2" x1="78" y1="41" x2="78"/><line class="cls-2" x1="114" y1="41" x2="114"/><line class="cls-2" x1="114" y1="41" x2="114"/><line class="cls-2" x1="152" y1="41" x2="152"/><line class="cls-2" x1="188" y1="41" x2="188"/><line class="cls-2" x1="188" y1="41" x2="188"/><line class="cls-2" x1="224" y1="41" x2="224"/><line class="cls-2" x1="310" y1="229" x2="269" y2="229"/><line class="cls-2" x1="310" y1="193" x2="269" y2="193"/><line class="cls-2" x1="310" y1="193" x2="269" y2="193"/><line class="cls-2" x1="310" y1="155" x2="269" y2="155"/><line class="cls-2" x1="310" y1="119" x2="269" y2="119"/><line class="cls-2" x1="310" y1="119" x2="269" y2="119"/><line class="cls-2" x1="310" y1="83" x2="269" y2="83"/><line class="cls-2" x1="41" y1="232" y2="232"/><line class="cls-2" x1="41" y1="196" y2="196"/><line class="cls-2" x1="41" y1="196" y2="196"/><line class="cls-2" x1="41" y1="158" y2="158"/><line class="cls-2" x1="41" y1="122" y2="122"/><line class="cls-2" x1="41" y1="122" y2="122"/><line class="cls-2" x1="41" y1="86" y2="86"/><text class="cls-3" transform="translate(103.77 190.54)">AI</text></g></g></svg>