<svg xmlns="http://www.w3.org/2000/svg" viewBox="0 0 851.46 613.78"><defs><style>.cls-1{opacity:0.8;}.cls-18,.cls-2{fill:gold;}.cls-10,.cls-14,.cls-15,.cls-19,.cls-3,.cls-8{fill:none;}.cls-3,.cls-8{stroke:#000;}.cls-10,.cls-14,.cls-15,.cls-18,.cls-19,.cls-3,.cls-8{stroke-miterlimit:10;}.cls-3{stroke-width:7px;}.cls-4{fill:#f15a24;}.cls-5{fill:#8cc63f;}.cls-6{fill:#fbb03b;}.cls-7{fill:#e6e6e6;}.cls-8{stroke-width:1.75px;}.cls-9{fill:#666;}.cls-10,.cls-14{stroke:gray;}.cls-10{stroke-width:9px;}.cls-11{fill:#1a1a1a;}.cls-12{fill:#4d4d4d;}.cls-13{fill:#1b2123;}.cls-14,.cls-18{stroke-width:2px;}.cls-15,.cls-18{stroke:#092633;}.cls-15{stroke-width:3px;}.cls-16{fill:#092633;}.cls-17{fill:#999;}.cls-19{stroke:#666;stroke-width:4px;}</style></defs><g id="Ebene_2" data-name="Ebene 2"><g id="Ebene_1-2" data-name="Ebene 1"><g id="Ebene_2-2" data-name="Ebene 2"><g id="Ebene_1-2-2" data-name="Ebene 1-2" class="cls-1"><path class="cls-2" d="M833.88,250.47c14-49.48,28-98.6,6.44-143.41-23.83-49.54-77.62-65.9-139.53-84.72C650.27,7,561.88-19.88,503.44,23.85c-34.19,25.6-36.1,38.69-66.39,54.66-60,31.66-108.71-40.46-182.22-11-43,17.22-59.81,60.58-61.77,65.84-19.52,52.58,9.51,106.31,32.38,148.63,37.92,70.16,64.05,65.88,83.66,121,22.93,64.43-6.41,88.36,18.54,128.91,30.53,49.61,113.74,77.64,172.39,53.77,67.55-27.47,44.19-100,126.15-157.33,64.75-45.3,108.59-20.51,158.46-75.14C813.8,321.22,824,285.12,833.88,250.47Z"/></g><g id="Vordegrund_-_1" data-name="Vordegrund - 1"><line class="cls-3" x1="633.72" y1="46.04" x2="148.93" y2="46.04"/><circle class="cls-4" cx="167.57" cy="32.56" r="6.6"/><circle class="cls-5" cx="204.86" cy="32.56" r="6.6"/><circle class="cls-6" cx="186.51" cy="32.56" r="6.6"/><rect class="cls-7" x="260.8" y="28.26" width="259.9" height="10.9" rx="2.54"/><line class="cls-8" x1="596.43" y1="29.98" x2="620.53" y2="29.98"/><line class="cls-8" x1="607.33" y1="38.01" x2="619.95" y2="38.01"/><line class="cls-8" x1="601.02" y1="33.99" x2="620.53" y2="33.99"/><circle class="cls-8" cx="266.24" cy="32.18" r="1.99"/><line class="cls-8" x1="267.5" y1="33.81" x2="271.13" y2="37.43"/><rect class="cls-9" x="166.52" y="82.38" width="76.31" height="40.16" rx="3.11"/><rect class="cls-9" x="166.52" y="139.75" width="76.31" height="40.16" rx="3.11"/><rect class="cls-9" x="166.52" y="197.13" width="76.31" height="40.16" rx="3.11"/><rect class="cls-9" x="166.52" y="254.5" width="76.31" height="40.16" rx="3.11"/><line class="cls-10" x1="273.23" y1="85.25" x2="591.08" y2="85.82"/><line class="cls-10" x1="273.23" y1="103.03" x2="492.4" y2="103.03"/><line class="cls-10" x1="273.23" y1="123.12" x2="519.36" y2="123.12"/><line class="cls-10" x1="273.23" y1="140.33" x2="356.43" y2="140.33"/><line class="cls-10" x1="396.58" y1="140.33" x2="468.3" y2="140.33"/><line class="cls-10" x1="274.38" y1="158.11" x2="530.26" y2="158.11"/><line class="cls-10" x1="274.38" y1="178.19" x2="511.9" y2="178.19"/><line class="cls-10" x1="274.38" y1="197.7" x2="324.87" y2="197.7"/><line class="cls-10" x1="339.78" y1="197.7" x2="476.9" y2="197.7"/></g><g id="Vordergrund_-_2" data-name="Vordergrund - 2"><path class="cls-11" d="M496.72,490H209.54V476.34H496.72Z"/><rect class="cls-12" x="216.38" y="490.02" width="274.19" height="1.37"/><rect class="cls-13" x="222.53" y="491.39" width="13.68" height="122.39"/><rect class="cls-13" x="469.37" y="491.39" width="13.68" height="122.39"/><line class="cls-14" x1="227.66" y1="501.64" x2="227.66" y2="545.41"/><line class="cls-14" x1="232.11" y1="522.15" x2="232.11" y2="573.45"/><line class="cls-14" x1="473.47" y1="545.4" x2="473.74" y2="604.29"/><line class="cls-14" x1="478.18" y1="509.92" x2="478.18" y2="561.22"/><path class="cls-15" d="M399.1,361.27l62.41,90.12a20.3,20.3,0,0,1,4.78,10.25C467.66,468.48,457.5,474,453,474c-27.69,0-97.38,2.11-114.53,0"/><polygon class="cls-16" points="414.68 301.77 387.09 425.03 375.03 428.86 405.15 294.25 414.68 301.77"/><rect class="cls-16" x="229.37" y="470.87" width="73.16" height="5.47" rx="0.59"/><rect class="cls-17" x="232.11" y="470.87" width="3.42" height="0.68"/><rect class="cls-17" x="263.57" y="473.59" width="3.42" height="0.68"/><rect class="cls-17" x="268.34" y="473.61" width="7.52" height="0.68"/><rect class="cls-17" x="279.28" y="473.61" width="7.52" height="0.68"/><path class="cls-18" d="M159.44,480.68c-4.92-2.74-37.13.59-43.16.56-40.26-.2-60.38-.3-67.83-10.65-7-9.79.79-15.21-7.85-39.28A79.69,79.69,0,0,0,26,406.09c-4.13-4.79-13.8-16-20.18-13.46C2.43,394,.07,399.31,1.36,402.72c1.6,4.22,7.83,3.17,14.86,9.25a16.83,16.83,0,0,1,5.6,6.73c7.42,15,4.78,60.82,20.46,81,21.57,27.73,62,39.29,91.1,37.84,14-.69,20.37-.07,25.22-3.93,18.87-15,14.86-47.93-.28-53.54"/><line class="cls-19" x1="24.9" y1="610.14" x2="59.1" y2="518.2"/><line class="cls-19" x1="41.72" y1="610.7" x2="66.38" y2="523.25"/><line class="cls-19" x1="172.62" y1="609.86" x2="147.96" y2="539.23"/><line class="cls-19" x1="154.12" y1="595.29" x2="138.99" y2="539.23"/></g></g></g></g></svg>