<svg xmlns="http://www.w3.org/2000/svg" viewBox="0 0 667.8 522.66"><defs><style>.cls-1,.cls-2,.cls-3,.cls-4,.cls-5,.cls-6,.cls-7,.cls-8{fill:none;stroke:#000;stroke-miterlimit:10;}.cls-1{stroke-width:2px;}.cls-2{stroke-width:8px;}.cls-3{stroke-width:4px;}.cls-4{stroke-width:3px;}.cls-5{stroke-width:0.75px;}.cls-6{stroke-width:6px;}.cls-7{stroke-width:5px;}.cls-8{stroke-width:7px;}</style></defs><g id="Ebene_2" data-name="Ebene 2"><g id="h"><circle cx="169.82" cy="319.45" r="31.5"/><path d="M169.82,288.45a31,31,0,1,1-31,31,31,31,0,0,1,31-31m0-1a32,32,0,1,0,32,32,32,32,0,0,0-32-32Z"/><circle cx="316.3" cy="370.14" r="42.02"/><path d="M316.3,328.62a41.52,41.52,0,1,1-41.52,41.52,41.56,41.56,0,0,1,41.52-41.52m0-1a42.52,42.52,0,1,0,42.52,42.52,42.52,42.52,0,0,0-42.52-42.52Z"/><circle cx="289.8" cy="178.6" r="15.52"/><path d="M289.8,163.58a15,15,0,1,1-15,15,15,15,0,0,1,15-15m0-1a16,16,0,1,0,16,16,16,16,0,0,0-16-16Z"/><circle cx="496.78" cy="375.62" r="15.52"/><path d="M496.78,360.6a15,15,0,1,1-15,15,15,15,0,0,1,15-15m0-1a16,16,0,1,0,16,16,16,16,0,0,0-16-16Z"/><circle cx="189.79" cy="502.63" r="19.53"/><path d="M189.79,483.6a19,19,0,1,1-19,19,19,19,0,0,1,19-19m0-1a20,20,0,1,0,20,20,20,20,0,0,0-20-20Z"/><circle cx="62.79" cy="207.63" r="28.53"/><path d="M62.79,179.6a28,28,0,1,1-28,28,28.06,28.06,0,0,1,28-28m0-1a29,29,0,1,0,29,29,29,29,0,0,0-29-29Z"/><circle cx="170.18" cy="34.53" r="34.03"/><path d="M170.18,1a33.53,33.53,0,1,1-33.54,33.53A33.57,33.57,0,0,1,170.18,1m0-1a34.53,34.53,0,1,0,34.53,34.53A34.54,34.54,0,0,0,170.18,0Z"/><circle cx="651.78" cy="135.62" r="15.52"/><path d="M651.78,120.6a15,15,0,1,1-15,15,15,15,0,0,1,15-15m0-1a16,16,0,1,0,16,16,16,16,0,0,0-16-16Z"/><path d="M432.18,236A27.93,27.93,0,1,1,460.11,208,28,28,0,0,1,432.18,236Z"/><path d="M432.18,180.6A27.43,27.43,0,1,1,404.76,208a27.45,27.45,0,0,1,27.42-27.42m0-1A28.43,28.43,0,1,0,460.61,208a28.42,28.42,0,0,0-28.43-28.42Z"/><path d="M403.48,463a9.63,9.63,0,1,1,9.63-9.63A9.63,9.63,0,0,1,403.48,463Z"/><path d="M403.48,444.19a9.13,9.13,0,1,1-9.12,9.13,9.15,9.15,0,0,1,9.12-9.13m0-1a10.13,10.13,0,1,0,10.13,10.13,10.13,10.13,0,0,0-10.13-10.13Z"/><path d="M373.13,145.6a9.63,9.63,0,1,1,9.62-9.63A9.64,9.64,0,0,1,373.13,145.6Z"/><path d="M373.13,126.85A9.13,9.13,0,1,1,364,136a9.13,9.13,0,0,1,9.13-9.12m0-1A10.13,10.13,0,1,0,383.25,136a10.12,10.12,0,0,0-10.12-10.12Z"/><path d="M10.13,422.6A9.63,9.63,0,1,1,19.75,413,9.64,9.64,0,0,1,10.13,422.6Z"/><path d="M10.13,403.85A9.13,9.13,0,1,1,1,413a9.13,9.13,0,0,1,9.13-9.12m0-1A10.13,10.13,0,1,0,20.25,413a10.12,10.12,0,0,0-10.12-10.12Z"/><circle cx="170.13" cy="145.97" r="9.63"/><path d="M170.13,136.85A9.13,9.13,0,1,1,161,146a9.13,9.13,0,0,1,9.13-9.12m0-1A10.13,10.13,0,1,0,180.25,146a10.12,10.12,0,0,0-10.12-10.12Z"/><line class="cls-1" x1="170.32" y1="34.95" x2="170.32" y2="145.95"/><line class="cls-1" x1="315.82" y1="370.45" x2="496.82" y2="375.45"/><line class="cls-1" x1="403.82" y1="453.45" x2="315.82" y2="370.45"/><line class="cls-1" x1="189.82" y1="502.45" x2="315.82" y2="370.45"/><line class="cls-1" x1="169.82" y1="319.45" x2="189.82" y2="502.45"/><line class="cls-1" x1="209.82" y1="502.45" x2="398.82" y2="453.45"/><line class="cls-1" x1="9.82" y1="413.45" x2="189.82" y2="502.45"/><line class="cls-2" x1="62.82" y1="207.45" x2="169.82" y2="319.45"/><line class="cls-1" x1="75.82" y1="207.45" x2="651.82" y2="135.45"/><line class="cls-1" x1="431.82" y1="208.45" x2="496.82" y2="375.45"/><line class="cls-1" x1="315.82" y1="370.45" x2="650.82" y2="135.45"/><line class="cls-1" x1="403.82" y1="453.45" x2="372.82" y2="136.45"/><line class="cls-3" x1="170.82" y1="35.45" x2="315.82" y2="370.45"/><line class="cls-1" x1="169.82" y1="319.45" x2="315.82" y2="370.45"/><line class="cls-1" x1="431.82" y1="207.45" x2="315.82" y2="370.45"/><line class="cls-1" x1="62.82" y1="207.45" x2="169.82" y2="146.45"/><line class="cls-4" x1="370.82" y1="133.45" x2="169.82" y2="146.45"/><line class="cls-3" x1="9.82" y1="413.45" x2="315.82" y2="369.45"/><line class="cls-1" x1="169.82" y1="319.45" x2="289.82" y2="176.45"/><line class="cls-1" x1="289.82" y1="176.45" x2="372.82" y2="136.45"/><line class="cls-5" x1="315.82" y1="369.45" x2="372.82" y2="136.45"/><line class="cls-6" x1="62.82" y1="207.45" x2="189.82" y2="502.45"/><line class="cls-1" x1="9.82" y1="410.45" x2="169.82" y2="319.45"/><line class="cls-1" x1="62.82" y1="207.45" x2="9.82" y2="410.45"/><line class="cls-1" x1="431.82" y1="207.45" x2="62.82" y2="207.45"/><line class="cls-5" x1="169.82" y1="319.45" x2="431.82" y2="207.45"/><line class="cls-1" x1="169.82" y1="146.45" x2="169.82" y2="319.45"/><line class="cls-1" x1="315.82" y1="369.45" x2="289.82" y2="176.45"/><line class="cls-1" x1="169.82" y1="146.45" x2="289.82" y2="178.45"/><line class="cls-3" x1="496.82" y1="375.45" x2="169.82" y2="146.45"/><line class="cls-1" x1="398.82" y1="453.45" x2="169.82" y2="146.45"/><line class="cls-3" x1="189.82" y1="502.45" x2="169.82" y2="146.45"/><line class="cls-7" x1="12.82" y1="413.45" x2="289.82" y2="178.45"/><line class="cls-1" x1="431.82" y1="207.45" x2="12.82" y2="413.45"/><line class="cls-1" x1="315.82" y1="369.45" x2="496.82" y2="375.45"/><line class="cls-6" x1="431.82" y1="208.45" x2="189.82" y2="502.45"/><line class="cls-1" x1="403.82" y1="453.45" x2="431.82" y2="208.45"/><line class="cls-1" x1="651.82" y1="135.45" x2="496.82" y2="375.45"/><line class="cls-3" x1="189.82" y1="502.45" x2="651.82" y2="135.45"/><line class="cls-3" x1="403.82" y1="453.45" x2="169.82" y2="319.45"/><line class="cls-3" x1="62.82" y1="208.45" x2="496.82" y2="375.45"/><line class="cls-8" x1="650.82" y1="135.45" x2="62.82" y2="208.45"/><path d="M10.13,422.6A9.63,9.63,0,1,1,19.75,413,9.64,9.64,0,0,1,10.13,422.6Z"/><path d="M10.13,403.85A9.13,9.13,0,1,1,1,413a9.13,9.13,0,0,1,9.13-9.12m0-1A10.13,10.13,0,1,0,20.25,413a10.12,10.12,0,0,0-10.12-10.12Z"/><path d="M10.13,422.6A9.63,9.63,0,1,1,19.75,413,9.64,9.64,0,0,1,10.13,422.6Z"/><path d="M10.13,403.85A9.13,9.13,0,1,1,1,413a9.13,9.13,0,0,1,9.13-9.12m0-1A10.13,10.13,0,1,0,20.25,413a10.12,10.12,0,0,0-10.12-10.12Z"/></g></g></svg>